<svg width="112" height="300" viewBox="0 0 112 300" fill="none" xmlns="http://www.w3.org/2000/svg">
<path d="M0 30C0 13.4315 13.4315 0 30 0H112V300H30C13.4315 300 0 286.569 0 270V30Z" fill="#252525"/>
<path d="M57.6562 27.8906V31H45.5781V27.8906H57.6562ZM46.6875 8.25V31H42.7656V8.25H46.6875ZM56.0781 17.75V20.8125H45.5781V17.75H56.0781ZM57.5781 8.25V11.375H45.5781V8.25H57.5781Z" fill="white"/>
<path d="M51.7344 72.7188H45.9375L45.9062 69.8594H50.9688C51.8229 69.8594 52.5469 69.7344 53.1406 69.4844C53.7448 69.224 54.2031 68.8542 54.5156 68.375C54.8281 67.8854 54.9844 67.2969 54.9844 66.6094C54.9844 65.849 54.8385 65.2292 54.5469 64.75C54.2552 64.2708 53.8073 63.9219 53.2031 63.7031C52.6094 63.4844 51.849 63.375 50.9219 63.375H47.125V83H43.2031V60.25H50.9219C52.1719 60.25 53.2865 60.3698 54.2656 60.6094C55.2552 60.849 56.0938 61.224 56.7812 61.7344C57.4792 62.2344 58.0052 62.8698 58.3594 63.6406C58.724 64.4115 58.9062 65.3281 58.9062 66.3906C58.9062 67.3281 58.6823 68.1875 58.2344 68.9688C57.7865 69.7396 57.125 70.3698 56.25 70.8594C55.375 71.349 54.2865 71.6406 52.9844 71.7344L51.7344 72.7188ZM51.5625 83H44.7031L46.4688 79.8906H51.5625C52.4479 79.8906 53.1875 79.7448 53.7812 79.4531C54.375 79.151 54.8177 78.7396 55.1094 78.2188C55.4115 77.6875 55.5625 77.0677 55.5625 76.3594C55.5625 75.6198 55.4323 74.9792 55.1719 74.4375C54.9115 73.8854 54.5 73.4635 53.9375 73.1719C53.375 72.8698 52.6406 72.7188 51.7344 72.7188H47.3281L47.3594 69.8594H53.0938L53.9844 70.9375C55.2344 70.9792 56.2604 71.2552 57.0625 71.7656C57.875 72.276 58.4792 72.9375 58.875 73.75C59.2708 74.5625 59.4688 75.4375 59.4688 76.375C59.4688 77.8229 59.151 79.0365 58.5156 80.0156C57.8906 80.9948 56.9896 81.7396 55.8125 82.25C54.6354 82.75 53.2188 83 51.5625 83Z" fill="white"/>
<path d="M59.875 123.375V132.062C59.5521 132.49 59.0469 132.958 58.3594 133.469C57.6823 133.969 56.7812 134.401 55.6562 134.766C54.5312 135.13 53.1302 135.312 51.4531 135.312C50.026 135.312 48.7188 135.073 47.5312 134.594C46.3438 134.104 45.3177 133.391 44.4531 132.453C43.599 131.516 42.9375 130.375 42.4688 129.031C42 127.677 41.7656 126.135 41.7656 124.406V122.828C41.7656 121.109 41.9792 119.578 42.4062 118.234C42.8438 116.88 43.4688 115.734 44.2812 114.797C45.0938 113.859 46.0729 113.151 47.2188 112.672C48.375 112.182 49.6823 111.938 51.1406 111.938C53.0052 111.938 54.5469 112.25 55.7656 112.875C56.9948 113.49 57.9427 114.344 58.6094 115.438C59.276 116.531 59.6979 117.781 59.875 119.188H56.0312C55.9062 118.396 55.6615 117.688 55.2969 117.062C54.9427 116.438 54.4323 115.948 53.7656 115.594C53.1094 115.229 52.2552 115.047 51.2031 115.047C50.2969 115.047 49.5 115.219 48.8125 115.562C48.125 115.906 47.5521 116.411 47.0938 117.078C46.6458 117.745 46.3073 118.557 46.0781 119.516C45.849 120.474 45.7344 121.568 45.7344 122.797V124.406C45.7344 125.656 45.8646 126.766 46.125 127.734C46.3958 128.703 46.7812 129.521 47.2812 130.188C47.7917 130.854 48.4115 131.359 49.1406 131.703C49.8698 132.036 50.6927 132.203 51.6094 132.203C52.5052 132.203 53.2396 132.13 53.8125 131.984C54.3854 131.828 54.8385 131.646 55.1719 131.438C55.5156 131.219 55.7812 131.01 55.9688 130.812V126.297H51.2344V123.375H59.875Z" fill="white"/>
<path d="M49.4688 187H44.6094L44.6406 183.891H49.4688C50.875 183.891 52.0521 183.583 53 182.969C53.9583 182.354 54.6771 181.474 55.1562 180.328C55.6458 179.182 55.8906 177.818 55.8906 176.234V175C55.8906 173.771 55.75 172.682 55.4688 171.734C55.1979 170.786 54.7917 169.99 54.25 169.344C53.7188 168.698 53.0625 168.208 52.2812 167.875C51.5104 167.542 50.6198 167.375 49.6094 167.375H44.5156V164.25H49.6094C51.1198 164.25 52.5 164.505 53.75 165.016C55 165.516 56.0781 166.24 56.9844 167.188C57.901 168.135 58.6042 169.271 59.0938 170.594C59.5833 171.917 59.8281 173.396 59.8281 175.031V176.234C59.8281 177.87 59.5833 179.349 59.0938 180.672C58.6042 181.995 57.901 183.13 56.9844 184.078C56.0677 185.016 54.974 185.74 53.7031 186.25C52.4427 186.75 51.0312 187 49.4688 187ZM46.7812 164.25V187H42.8594V164.25H46.7812Z" fill="white"/>
<path d="M51.5625 219.281L44.7656 239H40.6562L49.2188 216.25H51.8438L51.5625 219.281ZM57.25 239L50.4375 219.281L50.1406 216.25H52.7812L61.375 239H57.25ZM56.9219 230.562V233.672H44.5469V230.562H56.9219Z" fill="white"/>
<path d="M57.6562 287.891V291H45.5781V287.891H57.6562ZM46.6875 268.25V291H42.7656V268.25H46.6875ZM56.0781 277.75V280.812H45.5781V277.75H56.0781ZM57.5781 268.25V271.375H45.5781V268.25H57.5781Z" fill="white"/>
</svg>
